<?xml version="1.0" standalone="no"?>
<!DOCTYPE svg PUBLIC "-//W3C//DTD SVG 20010904//EN"
 "http://www.w3.org/TR/2001/REC-SVG-20010904/DTD/svg10.dtd">
<svg version="1.0" xmlns="http://www.w3.org/2000/svg"
 width="300.000000pt" height="287.000000pt" viewBox="0 0 300.000000 287.000000"
 preserveAspectRatio="xMidYMid meet">
<metadata>
Created by potrace 1.10, written by Peter Selinger 2001-2011
</metadata>
<g transform="translate(0.000000,287.000000) scale(0.100000,-0.100000)"
fill="#ea9413" stroke="none">
<path d="M1263 2732 c-13 -8 -65 -82 -58 -82 2 0 -25 -48 -60 -106 -35 -59
-67 -115 -70 -125 -4 -11 -10 -19 -14 -19 -4 0 -18 -22 -31 -49 l-23 -50 29
-48 c16 -26 29 -50 29 -53 0 -3 10 -18 21 -35 12 -16 36 -57 54 -90 18 -33 46
-79 61 -103 16 -24 29 -47 29 -51 0 -4 9 -16 19 -25 17 -16 45 -18 258 -17
235 1 238 1 255 23 10 13 21 32 24 43 4 11 10 22 14 25 4 3 35 55 70 115 94
164 120 212 120 223 0 16 -229 405 -246 418 -17 13 -461 19 -481 6z m501 -75
c16 -28 67 -117 114 -197 47 -79 85 -149 85 -155 0 -6 -38 -76 -85 -155 -47
-80 -98 -169 -114 -197 l-29 -53 -235 0 -235 0 -48 88 c-26 48 -78 139 -115
202 l-68 115 109 190 c60 105 114 196 120 203 7 9 68 12 241 12 l231 0 29 -53z"/>
<path d="M478 2263 c-9 -10 -44 -67 -78 -128 -35 -60 -78 -135 -96 -165 -66
-109 -68 -117 -40 -164 23 -40 24 -43 8 -69 -12 -20 -25 -27 -48 -27 -30 0
-74 -34 -74 -58 0 -6 14 -21 30 -34 17 -12 30 -29 30 -38 0 -22 20 -40 43 -40
21 0 42 21 57 58 5 12 14 22 19 22 5 0 13 -10 17 -22 9 -32 34 -58 55 -58 12
0 26 -15 39 -40 42 -82 35 -80 262 -80 l202 0 -20 -20 c-18 -18 -33 -20 -192
-21 -96 0 -184 -4 -197 -9 -14 -5 -40 -40 -70 -96 -26 -48 -60 -106 -76 -129
-16 -23 -47 -77 -69 -120 l-40 -77 33 -62 c52 -95 160 -280 166 -286 4 -3 12
-17 19 -33 6 -15 23 -32 38 -37 14 -6 125 -10 248 -10 l222 0 22 25 c12 14 22
27 22 29 0 4 153 271 170 296 6 8 17 30 26 48 14 32 14 36 -12 85 -15 29 -44
80 -65 115 -38 62 -48 92 -31 92 14 0 36 -30 87 -120 74 -132 42 -120 315
-120 273 0 240 -12 318 120 70 117 78 128 93 113 12 -12 -20 -77 -93 -192 -15
-25 -28 -52 -28 -61 0 -9 14 -38 31 -66 18 -27 47 -78 66 -113 20 -35 42 -76
52 -91 9 -15 31 -53 49 -84 19 -31 43 -61 54 -67 13 -7 97 -10 250 -7 257 3
237 -3 284 86 10 21 21 39 24 42 7 6 102 173 141 248 l28 54 -25 46 c-13 26
-50 90 -81 142 -30 52 -63 109 -73 125 -52 90 -63 103 -83 109 -38 10 -434 7
-463 -4 -36 -14 -63 -5 -57 19 2 10 -10 47 -29 82 -18 35 -34 67 -36 72 -2 4
5 7 15 7 11 0 33 -24 58 -63 l40 -62 237 -3 238 -2 22 25 c12 14 31 42 42 62
12 20 23 36 26 34 3 -1 17 2 31 8 18 6 30 6 37 -1 7 -7 25 -7 59 0 26 6 59 8
73 5 34 -6 56 20 65 78 9 61 -7 74 -94 74 -62 0 -66 1 -64 22 1 12 14 38 28
59 14 20 25 49 25 63 0 14 -28 73 -62 131 -34 58 -69 119 -78 135 -35 66 -74
131 -88 148 -14 15 -39 17 -253 17 -269 0 -255 4 -300 -84 -11 -23 -28 -54
-38 -71 -25 -40 -123 -214 -140 -247 -15 -28 -17 -22 45 -138 14 -25 5 -48
-15 -36 -6 4 -25 31 -43 61 -18 31 -41 58 -51 61 -10 3 -116 6 -236 7 -227 2
-261 -3 -275 -42 -14 -37 -38 -71 -57 -81 -25 -14 -24 4 2 45 46 72 51 92 31
133 -35 72 -195 347 -215 370 -20 22 -24 22 -257 22 -213 0 -238 -2 -252 -17z
m582 -172 c49 -84 90 -155 90 -157 0 -3 11 -22 25 -44 l25 -39 -51 -86 c-45
-76 -52 -84 -65 -70 -20 19 -29 19 -61 -2 -26 -17 -26 -17 -21 4 7 27 -35 54
-54 35 -7 -7 -20 -12 -29 -12 -9 0 -30 -7 -45 -15 -34 -18 -56 -19 -71 -4 -8
8 -20 6 -43 -6 -23 -12 -35 -14 -43 -6 -6 6 -21 11 -34 11 -13 0 -32 5 -42 12
-15 9 -24 8 -43 -4 -16 -10 -40 -15 -73 -12 -27 1 -55 -2 -62 -8 -10 -8 -13
-6 -13 5 0 9 5 19 10 22 17 10 11 49 -9 62 -25 15 -44 1 -70 -51 -17 -37 -19
-38 -30 -19 -8 16 -7 24 4 33 12 10 13 16 4 26 -6 8 -17 14 -23 14 -7 0 -6 -4
2 -9 11 -7 10 -16 -7 -46 -11 -21 -18 -41 -16 -45 2 -4 21 -4 41 -1 31 5 39
12 48 38 12 36 32 60 42 50 4 -4 0 -26 -9 -49 -32 -88 -32 -129 1 -96 9 9 12
9 12 0 0 -17 -37 -52 -54 -52 -19 0 -25 19 -15 52 9 34 4 38 -45 29 -33 -5
-41 -11 -50 -39 -12 -34 -34 -55 -48 -46 -4 3 1 23 12 45 l20 39 -20 0 c-11 0
-20 -5 -20 -11 0 -11 -48 -4 -60 8 -11 11 36 33 71 33 30 0 39 4 45 23 3 12
13 29 21 38 13 15 11 23 -16 65 -29 47 -29 49 -12 74 10 14 45 72 78 130 33
58 78 137 101 175 l40 70 236 -5 236 -5 90 -154z m1551 -8 c56 -98 110 -189
119 -203 18 -25 17 -26 -34 -111 -61 -102 -75 -121 -87 -113 -5 3 -7 21 -3 39
5 31 3 35 -20 41 -16 4 -32 1 -42 -7 -9 -7 -23 -14 -32 -15 -9 -2 -27 -8 -39
-15 -19 -10 -31 -10 -57 -1 -30 11 -39 10 -69 -7 l-35 -19 -6 29 c-4 22 -11
29 -29 29 -13 0 -28 -5 -33 -10 -8 -8 -15 -6 -24 5 -17 20 -35 19 -57 -4 -12
-12 -32 -18 -60 -18 -23 0 -49 -6 -57 -12 -13 -11 -18 -10 -31 3 -9 9 -21 16
-26 16 -15 0 -53 -21 -61 -34 -9 -13 -6 -17 -67 87 l-51 88 116 199 116 200
231 3 c128 1 233 3 234 5 0 1 47 -78 104 -175z m-841 -342 c19 -34 41 -61 49
-61 9 0 11 -8 6 -27 l-7 -28 31 29 c35 34 47 30 35 -11 -4 -15 -8 -33 -9 -40
0 -6 -4 -15 -8 -19 -4 -4 -1 -14 6 -23 8 -9 32 -49 55 -89 l41 -73 -44 -69
c-46 -72 -53 -86 -35 -75 6 3 10 2 10 -4 0 -6 -9 -15 -19 -20 -10 -6 -48 -60
-82 -121 l-64 -110 -235 0 -235 0 -74 130 c-40 72 -79 130 -86 130 -17 0 -55
-65 -45 -76 5 -5 38 -60 74 -122 l66 -114 -117 -199 -116 -199 -236 0 -236 0
-65 113 c-35 61 -87 151 -115 198 l-52 86 116 201 116 202 194 0 c190 0 193 0
211 23 21 26 91 51 120 42 15 -5 25 5 46 42 15 26 45 77 66 112 24 41 36 72
32 84 -4 13 0 20 13 23 10 3 32 29 47 57 16 29 32 57 37 62 4 6 95 9 241 8
l233 -1 35 -61z m-786 -36 c-4 -8 -15 -15 -25 -15 -12 0 -16 5 -13 15 4 8 15
15 25 15 12 0 16 -5 13 -15z m1226 0 c0 -8 -9 -15 -20 -15 -20 0 -26 11 -13
23 12 13 33 7 33 -8z m80 -10 c-7 -8 -9 -23 -6 -33 5 -14 1 -21 -14 -25 -22
-6 -28 -37 -7 -37 7 0 32 18 56 40 30 28 51 40 73 40 28 0 30 -2 23 -27 -3
-16 -9 -43 -12 -60 -6 -37 -22 -44 -30 -13 -5 19 -7 20 -29 5 -26 -17 -54 -20
-54 -5 0 6 -10 5 -25 -2 -21 -9 -29 -9 -42 5 -14 14 -18 14 -40 0 -34 -23 -49
-6 -34 40 13 38 37 64 48 53 4 -4 2 -16 -5 -26 -7 -11 -12 -26 -12 -35 0 -26
28 -5 50 38 12 23 29 47 37 54 20 16 38 6 23 -12z m304 10 c-6 -16 -44 -21
-44 -7 0 14 12 22 31 22 12 0 16 -5 13 -15z m-1951 -34 c-3 -20 -2 -21 22 -5
50 33 62 -16 16 -65 -16 -17 -38 -31 -49 -31 -15 0 -22 -10 -29 -37 -6 -25
-15 -39 -27 -41 -16 -3 -18 0 -11 19 4 13 8 38 9 54 0 17 9 38 19 48 9 9 17
25 17 35 -1 16 -2 16 -15 -2 -7 -10 -19 -16 -25 -14 -7 2 1 17 19 37 33 36 57
37 54 2z m274 -6 c-1 -19 -6 -35 -11 -35 -6 0 -23 -14 -38 -32 -23 -27 -29
-30 -37 -18 -6 9 -6 19 1 27 5 7 7 24 4 38 -5 20 -3 25 13 25 12 0 21 -8 24
-22 4 -21 4 -21 6 3 1 24 17 49 32 49 4 0 7 -16 6 -35z m1609 3 c-2 -20 -10
-34 -19 -36 -9 -2 -19 -12 -22 -22 -9 -29 -34 -45 -47 -32 -8 8 -8 15 2 26 7
9 10 26 6 41 -5 20 -3 25 13 25 11 0 22 -8 24 -17 4 -15 5 -14 6 3 1 20 19 44
33 44 4 0 6 -15 4 -32z m-2029 -18 c-3 -23 -1 -38 4 -34 12 7 11 -3 -1 -27 -6
-10 -17 -19 -25 -19 -19 0 -18 67 1 98 21 32 27 27 21 -18z m313 9 c0 -11 -11
-31 -25 -44 -25 -26 -24 -28 10 -26 20 2 20 2 0 -14 -11 -8 -26 -13 -33 -10
-8 3 -20 5 -27 5 -40 0 -15 79 33 104 31 16 42 13 42 -15z m278 -7 c3 -25 -3
-38 -26 -59 -16 -16 -44 -54 -63 -85 l-34 -58 -235 0 -235 0 -33 61 c-19 33
-31 63 -28 66 9 10 35 -17 38 -40 3 -18 7 -15 27 21 12 24 20 51 16 60 -6 16
32 65 46 57 6 -5 -4 -39 -40 -130 -12 -29 -12 -29 8 -10 31 27 25 6 -6 -28
l-28 -30 25 6 c14 3 32 2 40 -3 20 -12 50 6 61 39 14 39 66 57 105 36 34 -17
60 -19 69 -5 3 6 17 7 31 4 17 -4 31 0 45 12 20 18 21 18 34 1 13 -18 50 -23
59 -8 3 5 16 7 29 4 18 -5 20 -3 10 8 -21 22 -15 51 19 86 40 41 62 39 66 -5z
m989 1 c-3 -42 -30 -89 -46 -79 -17 11 24 114 46 116 2 0 2 -17 0 -37z m-1112
-3 c-19 -37 -19 -51 0 -44 8 4 15 1 15 -5 0 -17 -51 -34 -63 -22 -19 19 26
101 55 101 5 0 2 -13 -7 -30z m185 21 c0 -6 -4 -13 -10 -16 -5 -3 -10 -11 -10
-17 0 -6 7 -5 17 3 15 12 16 12 8 -1 -20 -35 -49 -70 -58 -70 -9 0 -1 46 14
88 8 21 39 32 39 13z m862 -16 c-11 -65 -13 -95 -6 -94 5 1 17 -1 28 -6 12 -5
21 -3 26 5 6 10 12 11 22 3 8 -6 65 -9 138 -9 69 1 135 -1 146 -5 13 -5 29 -2
40 5 13 10 22 11 35 3 14 -9 22 -7 37 6 17 16 21 16 32 2 16 -19 21 -19 46 1
18 15 18 15 -4 9 -14 -4 -24 -2 -27 7 -6 16 19 83 36 93 17 11 24 -4 11 -25
-7 -11 -12 -26 -12 -35 0 -20 27 -9 73 32 27 24 46 33 65 31 18 -2 26 -8 24
-18 -2 -8 -7 -33 -11 -55 -4 -25 -12 -40 -21 -40 -8 0 -14 8 -14 18 1 10 -1
16 -5 15 -61 -32 -62 -32 -71 -18 -5 8 -10 12 -12 10 -2 -3 -19 -35 -38 -72
l-35 -68 -236 0 -237 0 -45 80 -46 81 20 20 c12 12 18 23 15 27 -4 3 -21 -8
-39 -26 -28 -28 -29 -32 -12 -32 20 -1 20 -1 1 -15 -47 -36 -64 9 -22 56 27
31 43 39 76 36 19 -2 24 -7 22 -22z m123 -7 c-4 -18 -7 -41 -7 -50 1 -16 -26
-33 -36 -23 -3 3 0 21 6 41 9 30 8 33 -4 23 -19 -16 -18 0 3 23 27 30 47 23
38 -14z m655 23 c0 -6 -4 -13 -10 -16 -5 -3 -10 -11 -10 -16 0 -6 5 -7 10 -4
16 10 12 -4 -12 -35 -27 -37 -42 -38 -35 -2 10 50 26 82 42 82 8 0 15 -4 15
-9z m47 -34 c-5 -51 -12 -67 -34 -67 -16 0 -15 23 2 64 6 14 5 17 -3 12 -16
-9 -15 7 0 22 26 26 39 14 35 -31z m-1754 -83 c11 -12 -54 -104 -74 -104 -19
0 -19 0 -1 28 11 15 27 39 36 55 16 27 27 33 39 21z m1542 -396 c61 -105 111
-197 113 -205 2 -7 -16 -46 -40 -86 -24 -39 -75 -127 -113 -194 l-70 -123
-236 0 -237 0 -116 199 -116 199 71 124 c92 158 96 162 124 144 13 -9 27 -11
35 -6 8 5 21 5 28 1 42 -24 78 26 73 102 -1 19 -17 24 -18 5 -5 -71 -21 -107
-42 -94 -7 5 -7 15 0 33 5 15 7 33 4 41 -3 8 0 21 6 28 19 23 2 16 -21 -8 -23
-25 -27 -46 -5 -28 25 21 16 -3 -14 -40 -34 -40 -47 -36 -33 12 6 18 13 45 16
61 l6 27 238 0 237 -1 110 -191z m-617 158 c7 -34 -9 -66 -39 -81 -24 -13 -34
-14 -45 -4 -20 17 -9 48 29 82 34 29 50 30 55 3z"/>
<path d="M1431 1744 c-12 -15 -21 -31 -21 -35 0 -5 -11 -9 -25 -9 -39 0 -87
-28 -83 -48 2 -9 18 -23 36 -31 20 -10 32 -22 33 -35 0 -15 6 -10 19 19 19 40
12 57 -14 36 -15 -13 -66 -5 -66 10 0 14 37 29 75 29 30 0 37 5 46 27 6 16 18
36 26 45 9 10 11 18 5 18 -6 0 -20 -12 -31 -26z"/>
<path d="M1535 1730 c-27 -43 -51 -45 -41 -4 9 33 0 30 -19 -6 -20 -40 -20
-40 23 -40 35 0 38 3 53 45 9 25 15 45 13 45 -2 0 -15 -18 -29 -40z"/>
<path d="M1585 1728 c-8 -20 -18 -56 -21 -80 -7 -40 -6 -42 10 -29 27 22 29 6
3 -25 -35 -40 -61 -28 -54 26 l5 40 -41 -7 c-45 -7 -57 -16 -57 -49 0 -12 -11
-26 -25 -34 -14 -7 -23 -15 -20 -18 9 -9 56 29 65 54 13 33 50 33 50 0 0 -14
6 -28 13 -33 10 -7 164 -15 222 -12 11 0 42 1 68 2 27 0 43 4 36 8 -10 6 -10
13 0 36 l13 28 -35 -33 c-33 -32 -56 -33 -36 -2 19 32 7 33 -17 3 -30 -39 -59
-45 -49 -10 4 12 15 39 24 59 18 37 18 37 -3 35 -17 -2 -23 -12 -31 -56 -12
-63 -30 -77 -38 -29 -4 23 0 41 13 59 l19 27 -30 6 c-37 7 -65 -6 -74 -35 -4
-11 -9 -19 -11 -16 -2 2 3 27 12 56 18 62 11 80 -11 29z m71 -62 c-3 -13 -9
-32 -13 -42 -4 -12 -3 -15 5 -10 17 11 15 -5 -5 -26 -29 -32 -46 -23 -38 20 7
42 30 82 46 82 7 0 9 -10 5 -24z"/>
<path d="M1771 1654 c-12 -27 -11 -28 4 -12 10 9 16 21 13 28 -2 7 -10 -1 -17
-16z"/>
<path d="M1198 1638 c0 -13 -2 -29 -2 -36 -1 -8 -10 -20 -20 -28 -17 -12 -17
-14 -3 -14 19 0 32 21 42 68 4 20 3 32 -4 32 -6 0 -12 -10 -13 -22z"/>
<path d="M1075 1420 c3 -5 28 -10 56 -10 38 0 49 -4 49 -16 0 -9 -9 -18 -20
-21 -17 -4 -50 -58 -50 -80 0 -3 16 -2 35 1 37 7 45 -3 20 -24 -12 -10 -12
-15 2 -36 17 -26 51 -31 84 -13 13 7 24 7 32 1 7 -6 36 -9 65 -8 29 1 55 -1
58 -5 9 -16 53 14 64 44 15 45 13 46 -24 2 -19 -22 -37 -37 -41 -33 -7 7 14
87 28 106 17 21 30 -3 17 -29 -9 -20 -7 -19 13 5 32 37 62 31 46 -10 -5 -15
-8 -33 -5 -40 3 -8 -4 -20 -15 -28 -20 -13 -18 -14 27 -14 27 0 56 4 66 9 11
6 19 5 23 -2 4 -6 21 -9 39 -8 17 1 39 -2 49 -6 10 -4 21 -5 24 -1 4 3 -1 6
-10 6 -10 0 -17 8 -17 21 0 19 -1 19 -22 5 -30 -21 -58 -20 -58 2 1 36 65 92
107 92 22 0 22 -3 17 -57 l-6 -58 43 -2 c24 -2 51 1 59 6 24 16 5 23 -25 9
-23 -10 -29 -10 -40 5 -7 10 -10 28 -7 40 6 25 40 76 62 94 13 11 13 12 -2 13
-9 0 -25 -11 -36 -25 -18 -23 -23 -24 -46 -13 -22 9 -33 8 -61 -5 l-34 -16 -7
31 c-11 54 -65 83 -104 58 -11 -7 -6 -8 16 -4 59 11 94 -69 59 -136 -27 -52
-85 -65 -85 -20 0 31 17 58 46 73 l25 13 -26 28 c-14 15 -30 24 -35 21 -6 -4
-2 -13 10 -23 13 -11 17 -22 12 -30 -7 -10 -15 -8 -35 8 -15 12 -27 17 -27 11
0 -6 -12 -10 -27 -10 -64 -1 -72 -3 -67 -14 9 -24 -11 -102 -26 -102 -9 0 -14
8 -13 22 2 21 2 21 -22 -3 -36 -36 -49 -31 -41 17 8 52 22 79 41 79 19 0 19
-14 0 -50 -23 -45 -2 -36 23 9 23 41 27 56 14 47 -4 -2 -14 -1 -22 4 -8 5 -22
4 -33 -2 -14 -7 -27 -7 -45 1 -21 10 -28 9 -47 -9 -25 -23 -72 -33 -81 -18 -4
6 8 23 26 39 35 33 35 50 -1 60 -38 11 -101 10 -94 -1z m203 -117 c4 -40 -36
-86 -71 -81 -34 5 -33 41 4 82 38 44 63 44 67 -1z"/>
<path d="M1226 1284 c-3 -9 -6 -23 -6 -31 0 -14 2 -14 19 1 11 10 17 24 14 32
-7 19 -19 18 -27 -2z"/>
<path d="M923 1373 c-20 -7 -15 -29 10 -46 20 -14 21 -16 4 -22 -11 -5 -25 -1
-37 10 -11 10 -23 15 -27 12 -11 -11 29 -47 52 -47 30 0 40 28 19 51 -16 18
-16 19 3 19 11 0 26 -11 33 -25 12 -22 11 -27 -5 -39 -11 -8 -16 -20 -12 -30
4 -10 -2 -21 -18 -32 -41 -26 -25 -86 25 -95 23 -3 66 17 73 35 8 20 4 20 -34
0 -30 -15 -69 -11 -69 7 0 19 21 49 34 49 8 0 19 7 26 15 7 8 16 12 21 9 15
-9 10 -19 -13 -29 -26 -12 -36 -35 -15 -35 15 0 67 57 67 73 0 5 -18 7 -40 5
-32 -3 -40 0 -38 12 2 10 18 16 51 18 52 3 57 13 32 62 -15 28 -19 30 -73 29
-31 0 -63 -3 -69 -6z m117 -38 c0 -17 -2 -18 -24 -9 -23 9 -20 24 4 24 11 0
20 -7 20 -15z"/>
<path d="M1080 1371 c0 -17 18 -21 24 -6 3 9 0 15 -9 15 -8 0 -15 -4 -15 -9z"/>
<path d="M1862 1368 c-7 -7 -12 -8 -12 -2 0 5 -7 -4 -15 -20 -13 -24 -13 -31
-3 -38 10 -6 7 -10 -9 -14 -20 -6 -39 -32 -29 -41 12 -12 49 12 57 37 6 15 20
32 32 38 l22 11 -23 0 c-27 1 -21 18 12 31 20 9 20 9 1 9 -12 1 -26 -4 -33
-11z"/>
<path d="M1566 1287 c-10 -15 -16 -31 -12 -34 11 -11 38 23 34 43 -3 17 -6 15
-22 -9z"/>
<path d="M1674 1283 c-35 -38 -19 -43 19 -5 17 18 26 32 19 32 -7 0 -24 -12
-38 -27z"/>
<path d="M2350 1635 c-13 -14 -20 -28 -17 -32 8 -7 57 35 57 49 0 15 -16 8
-40 -17z"/>
<path d="M651 1626 c-19 -20 -21 -26 -9 -26 19 0 41 25 36 40 -2 6 -14 0 -27
-14z"/>
<path d="M765 1640 c-10 -11 -16 -22 -13 -25 3 -3 13 4 23 15 10 11 16 22 13
25 -3 3 -13 -4 -23 -15z"/>
<path d="M1036 1634 c-3 -9 -6 -23 -6 -31 0 -14 2 -14 19 1 11 10 17 24 14 32
-7 19 -19 18 -27 -2z"/>
<path d="M2655 1630 c-16 -16 -24 -30 -19 -30 12 0 35 18 53 43 22 28 -3 19
-34 -13z"/>
<path d="M1956 1274 c-4 -14 -4 -29 -1 -33 8 -8 36 30 32 43 -7 21 -25 16 -31
-10z"/>
<path d="M1248 913 c-9 -10 -27 -39 -40 -64 -14 -25 -47 -81 -72 -125 -57 -96
-63 -106 -98 -171 l-29 -51 21 -37 c40 -71 103 -180 119 -207 9 -14 31 -52 50
-85 58 -101 33 -93 300 -93 170 1 240 4 252 13 8 7 33 44 54 82 21 39 57 99
78 135 22 35 55 93 73 128 l34 63 -31 62 c-18 34 -58 106 -91 159 -32 54 -70
119 -85 145 -14 27 -31 51 -37 55 -6 4 -117 8 -247 8 -212 0 -237 -2 -251 -17z
m603 -208 l118 -200 -29 -50 c-16 -27 -69 -119 -117 -202 l-88 -153 -235 0
-235 0 -63 113 c-34 61 -86 152 -115 202 l-53 89 104 181 c58 99 111 190 119
203 14 22 14 22 245 20 l231 -3 118 -200z"/>
</g>
</svg>
